<?xml version="1.0" encoding="utf-8"?>
<!-- Generator: Adobe Illustrator 19.2.0, SVG Export Plug-In . SVG Version: 6.00 Build 0)  -->
<svg version="1.1" id="Layer_1" xmlns="http://www.w3.org/2000/svg" xmlns:xlink="http://www.w3.org/1999/xlink" x="0px" y="0px"
	 viewBox="0 0 113 113" style="enable-background:new 0 0 113 113;" xml:space="preserve">
<style type="text/css">
	.st0{fill:#ED232C;}
	.st1{fill:#FDF8F8;}
	.st2{fill:#FBE0E0;}
</style>
<g>
	<path class="st0" d="M56.9,6.2c10.2,0,20.3-0.1,30.5,0c11.3,0.1,19.2,7.2,19.4,18.4c0.4,21.4,0.3,42.8,0,64.1
		c-0.2,10.6-8.2,17.9-18.9,18c-20.9,0.1-41.8,0.1-62.8,0c-11,0-19-7.9-19-18.9c-0.1-20.8-0.1-41.5,0-62.3
		C6.1,13.8,13.8,6.3,25.5,6.2C36,6.1,46.4,6.2,56.9,6.2z M48,52.8c0,6.8-0.1,13.5,0,20.3c0.1,3.7-1,4.2-4.3,2.6c-4-2-8-3.8-12.4-4.8
		c-3-0.7-5,0.7-6.5,3.2c-1.7,2.7,1.1,3.5,2.3,4.7c5.5,5.8,11.2,11.4,16.8,17.1c1.2,1.2,2.3,2.4,4.3,2.4C59.1,98,70,98.1,80.9,98
		c2.9,0,4.9-1.3,5.4-4.5c1.1-6.8,2.5-13.6,3.5-20.4c0.5-3-0.5-5.6-3.5-7.2c-4.9-2.5-9.7-5.2-14.6-7.7c-3-1.5-5.7-3.9-9.2-3.8
		c-2.9,0.1-3.3-1.2-3.3-3.6c0.1-6,0.1-12,0-18c-0.1-4.9-2.2-7.6-5.6-7.5c-3.5,0-5.6,2.7-5.6,7.5C48,39.5,48,46.2,48,52.8z
		 M41.4,45.7c0-5.4-0.2-10.2,0-15c0.3-7.6,5-12,12.4-11.9c7.3,0.1,11.8,4.6,12,12.2c0.1,4.7,0,9.3,0,14.4c8.1-6.3,8.6-19.1,1.1-26.6
		C59,11,46.8,11.3,39.5,19.5C32.5,27.3,33.2,39.2,41.4,45.7z"/>
	<path class="st1" d="M48,52.8c0-6.6,0-13.2,0-19.8c0-4.8,2.1-7.5,5.6-7.5c3.4,0,5.5,2.7,5.6,7.5c0.1,6,0.1,12,0,18
		c0,2.3,0.3,3.7,3.3,3.6c3.5-0.1,6.2,2.3,9.2,3.8c4.9,2.4,9.7,5.1,14.6,7.7c3,1.5,3.9,4.2,3.5,7.2c-1,6.8-2.5,13.6-3.5,20.4
		c-0.5,3.2-2.5,4.5-5.4,4.5c-10.9,0.1-21.8,0-32.7,0.1c-2,0-3.1-1.1-4.3-2.4c-5.6-5.7-11.3-11.3-16.8-17.1c-1.2-1.2-4-2-2.3-4.7
		c1.5-2.4,3.5-3.8,6.5-3.2c4.4,1,8.4,2.8,12.4,4.8c3.3,1.6,4.4,1.1,4.3-2.6C47.9,66.3,48,59.5,48,52.8z"/>
	<path class="st2" d="M41.4,45.7c-8.3-6.5-8.9-18.4-2-26.1c7.4-8.2,19.6-8.5,27.4-0.7c7.5,7.5,7,20.3-1.1,26.6c0-5.1,0.1-9.8,0-14.4
		c-0.2-7.7-4.6-12.2-12-12.2c-7.4-0.1-12.1,4.3-12.4,11.9C41.3,35.5,41.4,40.2,41.4,45.7z"/>
</g>
</svg>
