<?xml version="1.0" encoding="utf-8"?>
<!-- Generator: Adobe Illustrator 19.2.0, SVG Export Plug-In . SVG Version: 6.00 Build 0)  -->
<svg version="1.1" id="Layer_1" xmlns="http://www.w3.org/2000/svg" xmlns:xlink="http://www.w3.org/1999/xlink" x="0px" y="0px"
	 viewBox="0 0 113 113" style="enable-background:new 0 0 113 113;" xml:space="preserve">
<style type="text/css">
	.st0{fill:#EC1F28;}
	.st1{fill:#ED262E;}
	.st2{fill:#ED2830;}
	.st3{fill:#EC252E;}
	.st4{fill:#ED272F;}
</style>
<g>
	<g>
		<path class="st0" d="M29.3,80.4c2.1,0,4.1,0,6.1,0c3.1,0,4.9-2.1,6.3-4.3c2.5-4.1,2.3-4.3,6.6-4.5c5.4-0.3,6.6-4.8,8.5-8.9
			c2.6,2.3,5.7,2.9,9.9,3.1c-2.1-1.9-3.6-3.4-5.2-4.7c-2.1-1.7-2.1-3.9-1.6-6.1c0.6-2.3,2.5-2.9,4.8-2.9c7.4,0.1,14.9,0.1,22.3,0
			c3.7,0,5.4,1.6,5.2,5.5c-0.4,8.9-2.3,17.6-4.2,26.2c-1,4.8-2.3,9.5-4.2,14c-1.8,4.5-4.9,7.4-9.3,8.6c-12.2,3.4-24.5,2.8-36.9,1.4
			c-3.7-0.4-5.3-2.6-5.7-6.3C31.2,94.5,30.2,87.5,29.3,80.4z"/>
		<path class="st1" d="M80,26.6c0,5.5-0.1,10.9,0,16.4c0.1,2.4-0.6,3.3-3.1,3.4c-9.6,0.4-9.6,0.5-9.6-9.6c0-8.7,0-17.3,0-26
			c0-4,1-6.9,5.7-6.7c4.9,0.1,6.9,1.7,7,6.7C80.1,16,80,21.3,80,26.6z"/>
		<path class="st2" d="M25.2,56.2c-0.4-3.6,1.2-6.1,4.4-6.8c3.5-0.8,5.1,2,5.7,4.9c1.1,5.2,2.1,10.5,2.8,15.9
			c0.4,3.2-1.5,5.2-4.3,5.8c-3,0.7-5.4-0.9-6.1-3.9C26.6,66.9,26,61.5,25.2,56.2z"/>
		<path class="st3" d="M51.4,60.8c0.2,2.9-0.5,5.2-3.6,5.7c-3.2,0.5-5.9,0-6.6-4.1c-0.9-5.3-2-10.6-2.7-15.9
			c-0.5-3.2,1.5-5.2,4.2-5.9c3.3-0.8,5.6,1,6.2,4.2C50,50.1,50.6,55.5,51.4,60.8z"/>
		<path class="st4" d="M52.3,38.8c-0.2-3.6-0.1-6.5,4.1-6.9c4.3-0.4,5.8,1.9,6,5.9c0.1,1.1,0.6,2.1,0.7,3.2c0.2,2.5,1.4,5.5-3,5.7
			c-1.1,0-2.1,1.7-3.2,2.6c-0.8,0.7-1.2,2.2-2.5,1.5c-1.1-0.6-1-2-0.9-3C53.7,44.6,51.6,41.7,52.3,38.8z"/>
	</g>
</g>
</svg>
