<?xml version="1.0" encoding="utf-8"?>
<!-- Generator: Adobe Illustrator 19.1.0, SVG Export Plug-In . SVG Version: 6.00 Build 0)  -->
<svg version="1.1" id="Layer_1" xmlns="http://www.w3.org/2000/svg" xmlns:xlink="http://www.w3.org/1999/xlink" x="0px" y="0px"
	 viewBox="0 0 113 113" style="enable-background:new 0 0 113 113;" xml:space="preserve">
<style type="text/css">
	.st0{fill:#EC2629;}
	.st1{fill:#FFFFFF;}
</style>
<g>
	<path class="st0" d="M42.1,63.4c-15.8-11.9-20-28.6-11.2-43.6c5.5-9.4,16.2-15.3,24.7-13.5c11.8,2.4,20.8,11.8,22.4,23.2
		c2,14.8-1.1,22.3-14.4,33.9c3,1.4,5.9,2.8,8.9,4.1c2,0.9,2.5,1.7,0.6,3.5c-8.6,8.6-11.6,18.8-8.3,30.6c0.8,3-0.2,3.3-2.8,3.3
		c-17.7-0.1-35.3,0-53,0c-1.9,0-3.9,0.3-2.8-2.8C11.5,87.5,19,74.8,33.1,67.3C35.9,65.8,38.8,64.8,42.1,63.4z"/>
</g>
<circle class="st0" cx="89.3" cy="91.2" r="19.4"/>
<rect x="88" y="81.1" class="st1" width="4.6" height="22.4"/>
<rect x="79.1" y="90" class="st1" width="22.4" height="4.6"/>
</svg>
